{"title":"Jatt James Bond 2014 Punjabi  X264 NONRETAL DVDRIP GOPI SAHI","uid":10124842,"size":732877655,"categoryP":"video","categoryS":"movies","magnet":"?xt=urn:btih:0b3fb0d8d306c3e7e54e22f98a49afae2c3754a4&amp;dn=Jatt+James+Bond+2014+Punjabi++X264+NONRETAL+DVDRIP+GOPI+SAHI&amp;tr=udp%3A%2F%2Ftracker.openbittorrent.com%3A80&amp;tr=udp%3A%2F%2Fopen.demonii.com%3A1337&amp;tr=udp%3A%2F%2Ftracker.coppersurfer.tk%3A6969&amp;tr=udp%3A%2F%2Fexodus.desync.com%3A6969","seeders":1,"leechers":0,"uploader":"jatt13","files":1,"time":1399749331,"description":"Video\nID                             : 1\nFormat                         : AVC\nFormat/Info                    : Advanced Video Codec\nFormat profile                 : &lt;a class=&quot;__cf_email__&quot; href=&quot;/cdn-cgi/l/email-protection&quot; data-cfemail=&quot;3b73525c537b770f150a&quot;&gt;[email&amp;#160;protected]&lt;/a&gt;&lt;script cf-hash='f9e31' type=&quot;text/javascript&quot;&gt;\n/* &lt;![CDATA[ */!function(){try{var t=&quot;currentScript&quot;in document?document.currentScript:function(){for(var t=document.getElementsByTagName(&quot;script&quot;),e=t.length;e--;)if(t[e].getAttribute(&quot;cf-hash&quot;))return t[e]}();if(t&amp;&amp;t.previousSibling){var e,r,n,i,c=t.previousSibling,a=c.getAttribute(&quot;data-cfemail&quot;);if(a){for(e=&quot;&quot;,r=parseInt(a.substr(0,2),16),n=2;a.length-n;n+=2)i=parseInt(a.substr(n,2),16)^r,e+=String.fromCharCode(i);e=document.createTextNode(e),c.parentNode.replaceChild(e,c)}}}catch(u){}}();/* ]]&gt; */&lt;/script&gt;\nFormat settings, CABAC         : Yes\nFormat settings, ReFrames      : 4 frames\nCodec ID                       : V_MPEG4/ISO/AVC\nDuration                       : 2h 20mn\nBit rate                       : 613 Kbps\nWidth                          : 640 pixels\nHeight                         : 272 pixels\nDisplay aspect ratio           : 2.35:1\nFrame rate mode                : Constant\nFrame rate                     : 23.976 fps\nColor space                    : YUV\nChroma subsampling             : 4:2:0\nBit depth                      : 8 bits\nScan type                      : Progressive\nBits/(Pixel*Frame)             : 0.147\nStream size                    : 605 MiB (86%)\nTitle                          : GOPI SAHI\nWriting library                : x264 core 138 r2358 9e941d1\nLanguage                       : Panjabi\nDefault                        : Yes\nForced                         : No\n\nAudio\nID                             : 2\nFormat                         : MPEG Audio\nFormat version                 : Version 1\nFormat profile                 : Layer 3\nMode                           : Joint stereo\nMode extension                 : MS Stereo\nCodec ID                       : A_MPEG/L3\nCodec ID/Hint                  : MP3\nDuration                       : 2h 20mn\nBit rate mode                  : Constant\nBit rate                       : 80.0 Kbps\nChannel count                  : 2 channels\nSampling rate                  : 32.0 KHz\nCompression mode               : Lossy\nStream size                    : 80.5 MiB (12%)\nTitle                          : GOPI SAHI\nWriting library                : LAME3.99r\nEncoding settings              : -m j -V 4 -q 2 -lowpass 13.5 -b 80\nLanguage                       : Panjabi\nDefault                        : Yes\nForced                         : No\n[IMG]http://i.imgur.com/L9Sfvmj.jpg[/IMG]\n[IMG]http://i.imgur.com/8dvRphn.jpg[/IMG]\n[IMG]http://i.imgur.com/8YW88uK.jpg[/IMG]","torrent":{"xt":"urn:btih:0b3fb0d8d306c3e7e54e22f98a49afae2c3754a4","amp;dn":"Jatt+James+Bond+2014+Punjabi++X264+NONRETAL+DVDRIP+GOPI+SAHI","amp;tr":["udp%3A%2F%2Ftracker.openbittorrent.com%3A80","udp%3A%2F%2Fopen.demonii.com%3A1337","udp%3A%2F%2Ftracker.coppersurfer.tk%3A6969","udp%3A%2F%2Fexodus.desync.com%3A6969"],"infoHash":"0b3fb0d8d306c3e7e54e22f98a49afae2c3754a4","infoHashBuffer":{"type":"Buffer","data":[11,63,176,216,211,6,195,231,229,78,34,249,138,73,175,174,44,55,84,164]},"announce":[],"urlList":[]}}